<mxfile host="app.diagrams.net" modified="2023-06-24T01:36:23.196Z" agent="Mozilla/5.0 (Windows NT 10.0; Win64; x64) AppleWebKit/537.36 (KHTML, like Gecko) Chrome/113.0.0.0 Safari/537.36 OPR/99.0.0.0" etag="zoo6HYfmwVJmnuptj6xC" version="21.5.0" type="device">
  <diagram name="Page-1" id="-Ukos6SjJW5uyPa9sQ7s">
    <mxGraphModel dx="1261" dy="730" grid="1" gridSize="10" guides="1" tooltips="1" connect="1" arrows="1" fold="1" page="1" pageScale="1" pageWidth="850" pageHeight="1100" math="0" shadow="1">
      <root>
        <mxCell id="0" />
        <mxCell id="1" parent="0" />
        <mxCell id="IEi7JNb95hjV7oVFbv9e-288" value="" style="group" vertex="1" connectable="0" parent="1">
          <mxGeometry x="80" y="25" width="710" height="1050" as="geometry" />
        </mxCell>
        <mxCell id="IEi7JNb95hjV7oVFbv9e-289" value="ADICIONAR / EDITAR CARROS /  USUÁRIO" style="shape=table;startSize=40;container=1;collapsible=0;childLayout=tableLayout;strokeColor=default;fontSize=16;rounded=1;fontStyle=1" vertex="1" parent="IEi7JNb95hjV7oVFbv9e-288">
          <mxGeometry width="710" height="1050" as="geometry" />
        </mxCell>
        <mxCell id="IEi7JNb95hjV7oVFbv9e-290" style="shape=tableRow;horizontal=0;startSize=0;swimlaneHead=0;swimlaneBody=0;strokeColor=inherit;top=0;left=0;bottom=0;right=0;collapsible=0;dropTarget=0;fillColor=none;points=[[0,0.5],[1,0.5]];portConstraint=eastwest;fontSize=16;" vertex="1" parent="IEi7JNb95hjV7oVFbv9e-289">
          <mxGeometry y="40" width="710" height="90" as="geometry" />
        </mxCell>
        <mxCell id="IEi7JNb95hjV7oVFbv9e-291" value="&lt;b&gt;&lt;font style=&quot;font-size: 39px;&quot;&gt;ATOR&lt;/font&gt;&lt;/b&gt;" style="shape=partialRectangle;html=1;whiteSpace=wrap;connectable=0;strokeColor=inherit;overflow=hidden;fillColor=none;top=0;left=0;bottom=0;right=0;pointerEvents=1;fontSize=16;" vertex="1" parent="IEi7JNb95hjV7oVFbv9e-290">
          <mxGeometry width="360" height="90" as="geometry">
            <mxRectangle width="360" height="90" as="alternateBounds" />
          </mxGeometry>
        </mxCell>
        <mxCell id="IEi7JNb95hjV7oVFbv9e-292" value="&lt;font style=&quot;font-size: 39px;&quot;&gt;&lt;b&gt;SISTEMA&lt;/b&gt;&lt;/font&gt;" style="shape=partialRectangle;html=1;whiteSpace=wrap;connectable=0;strokeColor=inherit;overflow=hidden;fillColor=none;top=0;left=0;bottom=0;right=0;pointerEvents=1;fontSize=16;rowspan=1;colspan=2;" vertex="1" parent="IEi7JNb95hjV7oVFbv9e-290">
          <mxGeometry x="360" width="350" height="90" as="geometry">
            <mxRectangle width="113" height="90" as="alternateBounds" />
          </mxGeometry>
        </mxCell>
        <mxCell id="IEi7JNb95hjV7oVFbv9e-293" value="" style="shape=partialRectangle;html=1;whiteSpace=wrap;connectable=0;strokeColor=inherit;overflow=hidden;fillColor=none;top=0;left=0;bottom=0;right=0;pointerEvents=1;fontSize=16;" vertex="1" visible="0" parent="IEi7JNb95hjV7oVFbv9e-290">
          <mxGeometry x="473" width="237" height="90" as="geometry">
            <mxRectangle width="237" height="90" as="alternateBounds" />
          </mxGeometry>
        </mxCell>
        <mxCell id="IEi7JNb95hjV7oVFbv9e-294" value="" style="shape=tableRow;horizontal=0;startSize=0;swimlaneHead=0;swimlaneBody=0;strokeColor=inherit;top=0;left=0;bottom=0;right=0;collapsible=0;dropTarget=0;fillColor=none;points=[[0,0.5],[1,0.5]];portConstraint=eastwest;fontSize=16;" vertex="1" parent="IEi7JNb95hjV7oVFbv9e-289">
          <mxGeometry y="130" width="710" height="308" as="geometry" />
        </mxCell>
        <mxCell id="IEi7JNb95hjV7oVFbv9e-295" value="" style="shape=partialRectangle;html=1;whiteSpace=wrap;connectable=0;strokeColor=inherit;overflow=hidden;fillColor=none;top=0;left=0;bottom=0;right=0;pointerEvents=1;fontSize=16;rowspan=3;colspan=1;" vertex="1" parent="IEi7JNb95hjV7oVFbv9e-294">
          <mxGeometry width="360" height="920" as="geometry">
            <mxRectangle width="360" height="308" as="alternateBounds" />
          </mxGeometry>
        </mxCell>
        <mxCell id="IEi7JNb95hjV7oVFbv9e-296" value="" style="shape=partialRectangle;html=1;whiteSpace=wrap;connectable=0;strokeColor=inherit;overflow=hidden;fillColor=none;top=0;left=0;bottom=0;right=0;pointerEvents=1;fontSize=16;rowspan=3;colspan=2;" vertex="1" parent="IEi7JNb95hjV7oVFbv9e-294">
          <mxGeometry x="360" width="350" height="920" as="geometry">
            <mxRectangle width="113" height="308" as="alternateBounds" />
          </mxGeometry>
        </mxCell>
        <mxCell id="IEi7JNb95hjV7oVFbv9e-297" value="" style="shape=partialRectangle;html=1;whiteSpace=wrap;connectable=0;strokeColor=inherit;overflow=hidden;fillColor=none;top=0;left=0;bottom=0;right=0;pointerEvents=1;fontSize=16;" vertex="1" visible="0" parent="IEi7JNb95hjV7oVFbv9e-294">
          <mxGeometry x="473" width="237" height="308" as="geometry">
            <mxRectangle width="237" height="308" as="alternateBounds" />
          </mxGeometry>
        </mxCell>
        <mxCell id="IEi7JNb95hjV7oVFbv9e-298" value="" style="shape=tableRow;horizontal=0;startSize=0;swimlaneHead=0;swimlaneBody=0;strokeColor=inherit;top=0;left=0;bottom=0;right=0;collapsible=0;dropTarget=0;fillColor=none;points=[[0,0.5],[1,0.5]];portConstraint=eastwest;fontSize=16;" vertex="1" parent="IEi7JNb95hjV7oVFbv9e-289">
          <mxGeometry y="438" width="710" height="304" as="geometry" />
        </mxCell>
        <mxCell id="IEi7JNb95hjV7oVFbv9e-299" value="" style="shape=partialRectangle;html=1;whiteSpace=wrap;connectable=0;strokeColor=inherit;overflow=hidden;fillColor=none;top=0;left=0;bottom=0;right=0;pointerEvents=1;fontSize=16;" vertex="1" visible="0" parent="IEi7JNb95hjV7oVFbv9e-298">
          <mxGeometry width="360" height="304" as="geometry">
            <mxRectangle width="360" height="304" as="alternateBounds" />
          </mxGeometry>
        </mxCell>
        <mxCell id="IEi7JNb95hjV7oVFbv9e-300" value="" style="shape=partialRectangle;html=1;whiteSpace=wrap;connectable=0;strokeColor=inherit;overflow=hidden;fillColor=none;top=0;left=0;bottom=0;right=0;pointerEvents=1;fontSize=16;" vertex="1" visible="0" parent="IEi7JNb95hjV7oVFbv9e-298">
          <mxGeometry x="360" width="113" height="304" as="geometry">
            <mxRectangle width="113" height="304" as="alternateBounds" />
          </mxGeometry>
        </mxCell>
        <mxCell id="IEi7JNb95hjV7oVFbv9e-301" value="" style="shape=partialRectangle;html=1;whiteSpace=wrap;connectable=0;strokeColor=inherit;overflow=hidden;fillColor=none;top=0;left=0;bottom=0;right=0;pointerEvents=1;fontSize=16;autosize=0;" vertex="1" visible="0" parent="IEi7JNb95hjV7oVFbv9e-298">
          <mxGeometry x="473" width="237" height="304" as="geometry">
            <mxRectangle width="237" height="304" as="alternateBounds" />
          </mxGeometry>
        </mxCell>
        <mxCell id="IEi7JNb95hjV7oVFbv9e-302" value="" style="shape=tableRow;horizontal=0;startSize=0;swimlaneHead=0;swimlaneBody=0;strokeColor=inherit;top=0;left=0;bottom=0;right=0;collapsible=0;dropTarget=0;fillColor=none;points=[[0,0.5],[1,0.5]];portConstraint=eastwest;fontSize=16;" vertex="1" parent="IEi7JNb95hjV7oVFbv9e-289">
          <mxGeometry y="742" width="710" height="308" as="geometry" />
        </mxCell>
        <mxCell id="IEi7JNb95hjV7oVFbv9e-303" value="" style="shape=partialRectangle;html=1;whiteSpace=wrap;connectable=0;strokeColor=inherit;overflow=hidden;fillColor=none;top=0;left=0;bottom=0;right=0;pointerEvents=1;fontSize=16;" vertex="1" visible="0" parent="IEi7JNb95hjV7oVFbv9e-302">
          <mxGeometry width="360" height="308" as="geometry">
            <mxRectangle width="360" height="308" as="alternateBounds" />
          </mxGeometry>
        </mxCell>
        <mxCell id="IEi7JNb95hjV7oVFbv9e-304" value="" style="shape=partialRectangle;html=1;whiteSpace=wrap;connectable=0;strokeColor=inherit;overflow=hidden;fillColor=none;top=0;left=0;bottom=0;right=0;pointerEvents=1;fontSize=16;" vertex="1" visible="0" parent="IEi7JNb95hjV7oVFbv9e-302">
          <mxGeometry x="360" width="113" height="308" as="geometry">
            <mxRectangle width="113" height="308" as="alternateBounds" />
          </mxGeometry>
        </mxCell>
        <mxCell id="IEi7JNb95hjV7oVFbv9e-305" value="" style="shape=partialRectangle;html=1;whiteSpace=wrap;connectable=0;strokeColor=inherit;overflow=hidden;fillColor=none;top=0;left=0;bottom=0;right=0;pointerEvents=1;fontSize=16;" vertex="1" visible="0" parent="IEi7JNb95hjV7oVFbv9e-302">
          <mxGeometry x="473" width="237" height="308" as="geometry">
            <mxRectangle width="237" height="308" as="alternateBounds" />
          </mxGeometry>
        </mxCell>
        <mxCell id="IEi7JNb95hjV7oVFbv9e-306" style="edgeStyle=orthogonalEdgeStyle;rounded=0;orthogonalLoop=1;jettySize=auto;html=1;" edge="1" parent="IEi7JNb95hjV7oVFbv9e-288" source="IEi7JNb95hjV7oVFbv9e-307" target="IEi7JNb95hjV7oVFbv9e-321">
          <mxGeometry relative="1" as="geometry" />
        </mxCell>
        <mxCell id="IEi7JNb95hjV7oVFbv9e-307" value="\" style="ellipse;whiteSpace=wrap;html=1;aspect=fixed;fillColor=#000000;" vertex="1" parent="IEi7JNb95hjV7oVFbv9e-288">
          <mxGeometry x="160" y="140" width="60" height="60" as="geometry" />
        </mxCell>
        <mxCell id="IEi7JNb95hjV7oVFbv9e-308" style="edgeStyle=orthogonalEdgeStyle;rounded=0;orthogonalLoop=1;jettySize=auto;html=1;" edge="1" parent="IEi7JNb95hjV7oVFbv9e-288">
          <mxGeometry relative="1" as="geometry">
            <mxPoint x="200.0476190476188" y="550.0198412698412" as="sourcePoint" />
            <Array as="points">
              <mxPoint x="75" y="525" />
            </Array>
          </mxGeometry>
        </mxCell>
        <mxCell id="IEi7JNb95hjV7oVFbv9e-309" style="edgeStyle=orthogonalEdgeStyle;rounded=0;orthogonalLoop=1;jettySize=auto;html=1;" edge="1" parent="IEi7JNb95hjV7oVFbv9e-288">
          <mxGeometry relative="1" as="geometry">
            <mxPoint x="200.0476190476188" y="550.0198412698412" as="sourcePoint" />
            <Array as="points">
              <mxPoint x="287" y="525" />
            </Array>
          </mxGeometry>
        </mxCell>
        <mxCell id="IEi7JNb95hjV7oVFbv9e-310" style="edgeStyle=orthogonalEdgeStyle;rounded=0;orthogonalLoop=1;jettySize=auto;html=1;" edge="1" parent="IEi7JNb95hjV7oVFbv9e-288">
          <mxGeometry relative="1" as="geometry">
            <mxPoint x="200" y="600" as="sourcePoint" />
          </mxGeometry>
        </mxCell>
        <mxCell id="IEi7JNb95hjV7oVFbv9e-311" style="edgeStyle=orthogonalEdgeStyle;rounded=0;orthogonalLoop=1;jettySize=auto;html=1;" edge="1" parent="IEi7JNb95hjV7oVFbv9e-288" source="IEi7JNb95hjV7oVFbv9e-313" target="IEi7JNb95hjV7oVFbv9e-317">
          <mxGeometry relative="1" as="geometry">
            <Array as="points">
              <mxPoint x="85" y="475" />
            </Array>
          </mxGeometry>
        </mxCell>
        <mxCell id="IEi7JNb95hjV7oVFbv9e-312" style="edgeStyle=orthogonalEdgeStyle;rounded=0;orthogonalLoop=1;jettySize=auto;html=1;" edge="1" parent="IEi7JNb95hjV7oVFbv9e-288" source="IEi7JNb95hjV7oVFbv9e-313" target="IEi7JNb95hjV7oVFbv9e-315">
          <mxGeometry relative="1" as="geometry">
            <Array as="points">
              <mxPoint x="280" y="475" />
            </Array>
          </mxGeometry>
        </mxCell>
        <mxCell id="IEi7JNb95hjV7oVFbv9e-313" value="" style="rhombus;whiteSpace=wrap;html=1;" vertex="1" parent="IEi7JNb95hjV7oVFbv9e-288">
          <mxGeometry x="130" y="450" width="120" height="50" as="geometry" />
        </mxCell>
        <mxCell id="IEi7JNb95hjV7oVFbv9e-314" style="edgeStyle=orthogonalEdgeStyle;rounded=0;orthogonalLoop=1;jettySize=auto;html=1;" edge="1" parent="IEi7JNb95hjV7oVFbv9e-288" source="IEi7JNb95hjV7oVFbv9e-315" target="IEi7JNb95hjV7oVFbv9e-319">
          <mxGeometry relative="1" as="geometry" />
        </mxCell>
        <mxCell id="IEi7JNb95hjV7oVFbv9e-315" value="Escolhe um carro para editar" style="rounded=0;whiteSpace=wrap;html=1;" vertex="1" parent="IEi7JNb95hjV7oVFbv9e-288">
          <mxGeometry x="215" y="505" width="130" height="60" as="geometry" />
        </mxCell>
        <mxCell id="IEi7JNb95hjV7oVFbv9e-316" style="edgeStyle=orthogonalEdgeStyle;rounded=0;orthogonalLoop=1;jettySize=auto;html=1;" edge="1" parent="IEi7JNb95hjV7oVFbv9e-288" source="IEi7JNb95hjV7oVFbv9e-317" target="IEi7JNb95hjV7oVFbv9e-336">
          <mxGeometry relative="1" as="geometry" />
        </mxCell>
        <mxCell id="IEi7JNb95hjV7oVFbv9e-317" value="Solicita adicionar um carro" style="rounded=0;whiteSpace=wrap;html=1;" vertex="1" parent="IEi7JNb95hjV7oVFbv9e-288">
          <mxGeometry x="20" y="585" width="130" height="60" as="geometry" />
        </mxCell>
        <mxCell id="IEi7JNb95hjV7oVFbv9e-318" style="edgeStyle=orthogonalEdgeStyle;rounded=0;orthogonalLoop=1;jettySize=auto;html=1;" edge="1" parent="IEi7JNb95hjV7oVFbv9e-288" source="IEi7JNb95hjV7oVFbv9e-319" target="IEi7JNb95hjV7oVFbv9e-332">
          <mxGeometry relative="1" as="geometry" />
        </mxCell>
        <mxCell id="IEi7JNb95hjV7oVFbv9e-319" value="Busca dados completos do carro" style="rounded=0;whiteSpace=wrap;html=1;" vertex="1" parent="IEi7JNb95hjV7oVFbv9e-288">
          <mxGeometry x="400" y="440" width="135" height="60" as="geometry" />
        </mxCell>
        <mxCell id="IEi7JNb95hjV7oVFbv9e-320" style="edgeStyle=orthogonalEdgeStyle;rounded=0;orthogonalLoop=1;jettySize=auto;html=1;" edge="1" parent="IEi7JNb95hjV7oVFbv9e-288" source="IEi7JNb95hjV7oVFbv9e-321" target="IEi7JNb95hjV7oVFbv9e-323">
          <mxGeometry relative="1" as="geometry" />
        </mxCell>
        <mxCell id="IEi7JNb95hjV7oVFbv9e-321" value="Solicita lista de carros" style="rounded=0;whiteSpace=wrap;html=1;" vertex="1" parent="IEi7JNb95hjV7oVFbv9e-288">
          <mxGeometry x="70" y="230" width="240" height="60" as="geometry" />
        </mxCell>
        <mxCell id="IEi7JNb95hjV7oVFbv9e-322" style="edgeStyle=orthogonalEdgeStyle;rounded=0;orthogonalLoop=1;jettySize=auto;html=1;" edge="1" parent="IEi7JNb95hjV7oVFbv9e-288" source="IEi7JNb95hjV7oVFbv9e-323" target="IEi7JNb95hjV7oVFbv9e-325">
          <mxGeometry relative="1" as="geometry" />
        </mxCell>
        <mxCell id="IEi7JNb95hjV7oVFbv9e-323" value="Busca lista de carros" style="rounded=0;whiteSpace=wrap;html=1;" vertex="1" parent="IEi7JNb95hjV7oVFbv9e-288">
          <mxGeometry x="440" y="230" width="220" height="60" as="geometry" />
        </mxCell>
        <mxCell id="IEi7JNb95hjV7oVFbv9e-324" style="edgeStyle=orthogonalEdgeStyle;rounded=0;orthogonalLoop=1;jettySize=auto;html=1;" edge="1" parent="IEi7JNb95hjV7oVFbv9e-288" source="IEi7JNb95hjV7oVFbv9e-325" target="IEi7JNb95hjV7oVFbv9e-327">
          <mxGeometry relative="1" as="geometry" />
        </mxCell>
        <mxCell id="IEi7JNb95hjV7oVFbv9e-325" value="Apresenta lista dos carros" style="rounded=0;whiteSpace=wrap;html=1;" vertex="1" parent="IEi7JNb95hjV7oVFbv9e-288">
          <mxGeometry x="440" y="350" width="220" height="60" as="geometry" />
        </mxCell>
        <mxCell id="IEi7JNb95hjV7oVFbv9e-326" style="edgeStyle=orthogonalEdgeStyle;rounded=0;orthogonalLoop=1;jettySize=auto;html=1;" edge="1" parent="IEi7JNb95hjV7oVFbv9e-288" source="IEi7JNb95hjV7oVFbv9e-327" target="IEi7JNb95hjV7oVFbv9e-313">
          <mxGeometry relative="1" as="geometry" />
        </mxCell>
        <mxCell id="IEi7JNb95hjV7oVFbv9e-327" value="Visualiza a lista" style="rounded=0;whiteSpace=wrap;html=1;" vertex="1" parent="IEi7JNb95hjV7oVFbv9e-288">
          <mxGeometry x="70" y="350" width="240" height="60" as="geometry" />
        </mxCell>
        <mxCell id="IEi7JNb95hjV7oVFbv9e-328" value="" style="group" vertex="1" connectable="0" parent="IEi7JNb95hjV7oVFbv9e-288">
          <mxGeometry x="630" y="970" width="60" height="65" as="geometry" />
        </mxCell>
        <mxCell id="IEi7JNb95hjV7oVFbv9e-329" value="" style="ellipse;shape=doubleEllipse;whiteSpace=wrap;html=1;aspect=fixed;" vertex="1" parent="IEi7JNb95hjV7oVFbv9e-328">
          <mxGeometry width="60" height="60" as="geometry" />
        </mxCell>
        <mxCell id="IEi7JNb95hjV7oVFbv9e-330" value="" style="ellipse;whiteSpace=wrap;html=1;aspect=fixed;fillColor=#000000;" vertex="1" parent="IEi7JNb95hjV7oVFbv9e-328">
          <mxGeometry x="3.75" y="4.0625" width="52.5" height="52.5" as="geometry" />
        </mxCell>
        <mxCell id="IEi7JNb95hjV7oVFbv9e-331" style="edgeStyle=orthogonalEdgeStyle;rounded=0;orthogonalLoop=1;jettySize=auto;html=1;" edge="1" parent="IEi7JNb95hjV7oVFbv9e-288" source="IEi7JNb95hjV7oVFbv9e-332" target="IEi7JNb95hjV7oVFbv9e-334">
          <mxGeometry relative="1" as="geometry" />
        </mxCell>
        <mxCell id="IEi7JNb95hjV7oVFbv9e-332" value="Preenche formulário com as informações encontradas" style="rounded=0;whiteSpace=wrap;html=1;" vertex="1" parent="IEi7JNb95hjV7oVFbv9e-288">
          <mxGeometry x="540" y="515" width="135" height="60" as="geometry" />
        </mxCell>
        <mxCell id="IEi7JNb95hjV7oVFbv9e-333" style="edgeStyle=orthogonalEdgeStyle;rounded=0;orthogonalLoop=1;jettySize=auto;html=1;" edge="1" parent="IEi7JNb95hjV7oVFbv9e-288" source="IEi7JNb95hjV7oVFbv9e-334" target="IEi7JNb95hjV7oVFbv9e-340">
          <mxGeometry relative="1" as="geometry">
            <Array as="points">
              <mxPoint x="430" y="715" />
              <mxPoint x="430" y="715" />
            </Array>
          </mxGeometry>
        </mxCell>
        <mxCell id="IEi7JNb95hjV7oVFbv9e-334" value="Apresenta formulário para edição" style="rounded=0;whiteSpace=wrap;html=1;" vertex="1" parent="IEi7JNb95hjV7oVFbv9e-288">
          <mxGeometry x="540" y="665" width="135" height="60" as="geometry" />
        </mxCell>
        <mxCell id="IEi7JNb95hjV7oVFbv9e-335" style="edgeStyle=orthogonalEdgeStyle;rounded=0;orthogonalLoop=1;jettySize=auto;html=1;" edge="1" parent="IEi7JNb95hjV7oVFbv9e-288" source="IEi7JNb95hjV7oVFbv9e-336" target="IEi7JNb95hjV7oVFbv9e-340">
          <mxGeometry relative="1" as="geometry">
            <Array as="points">
              <mxPoint x="458" y="695" />
            </Array>
          </mxGeometry>
        </mxCell>
        <mxCell id="IEi7JNb95hjV7oVFbv9e-336" value="Apresenta formulário para criação" style="rounded=0;whiteSpace=wrap;html=1;" vertex="1" parent="IEi7JNb95hjV7oVFbv9e-288">
          <mxGeometry x="390" y="585" width="135" height="60" as="geometry" />
        </mxCell>
        <mxCell id="IEi7JNb95hjV7oVFbv9e-337" style="edgeStyle=orthogonalEdgeStyle;rounded=0;orthogonalLoop=1;jettySize=auto;html=1;" edge="1" parent="IEi7JNb95hjV7oVFbv9e-288" source="IEi7JNb95hjV7oVFbv9e-338" target="IEi7JNb95hjV7oVFbv9e-345">
          <mxGeometry relative="1" as="geometry" />
        </mxCell>
        <mxCell id="IEi7JNb95hjV7oVFbv9e-338" value="Preenche formulário" style="rounded=0;whiteSpace=wrap;html=1;" vertex="1" parent="IEi7JNb95hjV7oVFbv9e-288">
          <mxGeometry x="80" y="675" width="135" height="60" as="geometry" />
        </mxCell>
        <mxCell id="IEi7JNb95hjV7oVFbv9e-339" style="edgeStyle=orthogonalEdgeStyle;rounded=0;orthogonalLoop=1;jettySize=auto;html=1;" edge="1" parent="IEi7JNb95hjV7oVFbv9e-288" source="IEi7JNb95hjV7oVFbv9e-340" target="IEi7JNb95hjV7oVFbv9e-338">
          <mxGeometry relative="1" as="geometry">
            <Array as="points">
              <mxPoint x="310" y="705" />
              <mxPoint x="310" y="705" />
            </Array>
          </mxGeometry>
        </mxCell>
        <mxCell id="IEi7JNb95hjV7oVFbv9e-340" value="" style="line;strokeWidth=4;direction=south;html=1;perimeter=backbonePerimeter;points=[];outlineConnect=0;" vertex="1" parent="IEi7JNb95hjV7oVFbv9e-288">
          <mxGeometry x="330" y="675" width="10" height="57.5" as="geometry" />
        </mxCell>
        <mxCell id="IEi7JNb95hjV7oVFbv9e-341" style="edgeStyle=orthogonalEdgeStyle;rounded=0;orthogonalLoop=1;jettySize=auto;html=1;" edge="1" parent="IEi7JNb95hjV7oVFbv9e-288" source="IEi7JNb95hjV7oVFbv9e-345" target="IEi7JNb95hjV7oVFbv9e-347">
          <mxGeometry relative="1" as="geometry" />
        </mxCell>
        <mxCell id="IEi7JNb95hjV7oVFbv9e-342" value="Confirma" style="edgeLabel;html=1;align=center;verticalAlign=middle;resizable=0;points=[];" vertex="1" connectable="0" parent="IEi7JNb95hjV7oVFbv9e-341">
          <mxGeometry x="-0.3866" y="1" relative="1" as="geometry">
            <mxPoint as="offset" />
          </mxGeometry>
        </mxCell>
        <mxCell id="IEi7JNb95hjV7oVFbv9e-343" style="edgeStyle=orthogonalEdgeStyle;rounded=0;orthogonalLoop=1;jettySize=auto;html=1;" edge="1" parent="IEi7JNb95hjV7oVFbv9e-288" source="IEi7JNb95hjV7oVFbv9e-345" target="IEi7JNb95hjV7oVFbv9e-349">
          <mxGeometry relative="1" as="geometry" />
        </mxCell>
        <mxCell id="IEi7JNb95hjV7oVFbv9e-344" value="Cancela" style="edgeLabel;html=1;align=center;verticalAlign=middle;resizable=0;points=[];" vertex="1" connectable="0" parent="IEi7JNb95hjV7oVFbv9e-343">
          <mxGeometry x="-0.3659" relative="1" as="geometry">
            <mxPoint as="offset" />
          </mxGeometry>
        </mxCell>
        <mxCell id="IEi7JNb95hjV7oVFbv9e-345" value="" style="rhombus;whiteSpace=wrap;html=1;" vertex="1" parent="IEi7JNb95hjV7oVFbv9e-288">
          <mxGeometry x="111.5" y="775" width="72" height="30" as="geometry" />
        </mxCell>
        <mxCell id="IEi7JNb95hjV7oVFbv9e-346" style="edgeStyle=orthogonalEdgeStyle;rounded=0;orthogonalLoop=1;jettySize=auto;html=1;" edge="1" parent="IEi7JNb95hjV7oVFbv9e-288" source="IEi7JNb95hjV7oVFbv9e-347" target="IEi7JNb95hjV7oVFbv9e-358">
          <mxGeometry relative="1" as="geometry" />
        </mxCell>
        <mxCell id="IEi7JNb95hjV7oVFbv9e-347" value="Valida entradas do formulário" style="rounded=0;whiteSpace=wrap;html=1;" vertex="1" parent="IEi7JNb95hjV7oVFbv9e-288">
          <mxGeometry x="377.5" y="760" width="135" height="60" as="geometry" />
        </mxCell>
        <mxCell id="IEi7JNb95hjV7oVFbv9e-348" style="edgeStyle=orthogonalEdgeStyle;rounded=0;orthogonalLoop=1;jettySize=auto;html=1;" edge="1" parent="IEi7JNb95hjV7oVFbv9e-288" source="IEi7JNb95hjV7oVFbv9e-349" target="IEi7JNb95hjV7oVFbv9e-353">
          <mxGeometry relative="1" as="geometry" />
        </mxCell>
        <mxCell id="IEi7JNb95hjV7oVFbv9e-349" value="Cancela alterações" style="rounded=0;whiteSpace=wrap;html=1;" vertex="1" parent="IEi7JNb95hjV7oVFbv9e-288">
          <mxGeometry x="90" y="955" width="135" height="60" as="geometry" />
        </mxCell>
        <mxCell id="IEi7JNb95hjV7oVFbv9e-350" style="edgeStyle=orthogonalEdgeStyle;rounded=0;orthogonalLoop=1;jettySize=auto;html=1;" edge="1" parent="IEi7JNb95hjV7oVFbv9e-288" source="IEi7JNb95hjV7oVFbv9e-351" target="IEi7JNb95hjV7oVFbv9e-330">
          <mxGeometry relative="1" as="geometry" />
        </mxCell>
        <mxCell id="IEi7JNb95hjV7oVFbv9e-351" value="Limpa formulário" style="rounded=0;whiteSpace=wrap;html=1;" vertex="1" parent="IEi7JNb95hjV7oVFbv9e-288">
          <mxGeometry x="416.25" y="977.81" width="102.5" height="45" as="geometry" />
        </mxCell>
        <mxCell id="IEi7JNb95hjV7oVFbv9e-352" style="edgeStyle=orthogonalEdgeStyle;rounded=0;orthogonalLoop=1;jettySize=auto;html=1;" edge="1" parent="IEi7JNb95hjV7oVFbv9e-288" source="IEi7JNb95hjV7oVFbv9e-353" target="IEi7JNb95hjV7oVFbv9e-351">
          <mxGeometry relative="1" as="geometry">
            <Array as="points">
              <mxPoint x="470" y="955" />
            </Array>
          </mxGeometry>
        </mxCell>
        <mxCell id="IEi7JNb95hjV7oVFbv9e-353" value="" style="line;strokeWidth=4;direction=south;html=1;perimeter=backbonePerimeter;points=[];outlineConnect=0;" vertex="1" parent="IEi7JNb95hjV7oVFbv9e-288">
          <mxGeometry x="380" y="912.5" width="10" height="57.5" as="geometry" />
        </mxCell>
        <mxCell id="IEi7JNb95hjV7oVFbv9e-354" style="edgeStyle=orthogonalEdgeStyle;rounded=0;orthogonalLoop=1;jettySize=auto;html=1;" edge="1" parent="IEi7JNb95hjV7oVFbv9e-288" source="IEi7JNb95hjV7oVFbv9e-358" target="IEi7JNb95hjV7oVFbv9e-334">
          <mxGeometry relative="1" as="geometry" />
        </mxCell>
        <mxCell id="IEi7JNb95hjV7oVFbv9e-355" value="Incorreto" style="edgeLabel;html=1;align=center;verticalAlign=middle;resizable=0;points=[];" vertex="1" connectable="0" parent="IEi7JNb95hjV7oVFbv9e-354">
          <mxGeometry x="-0.1493" y="1" relative="1" as="geometry">
            <mxPoint as="offset" />
          </mxGeometry>
        </mxCell>
        <mxCell id="IEi7JNb95hjV7oVFbv9e-356" style="edgeStyle=orthogonalEdgeStyle;rounded=0;orthogonalLoop=1;jettySize=auto;html=1;" edge="1" parent="IEi7JNb95hjV7oVFbv9e-288" source="IEi7JNb95hjV7oVFbv9e-358" target="IEi7JNb95hjV7oVFbv9e-360">
          <mxGeometry relative="1" as="geometry" />
        </mxCell>
        <mxCell id="IEi7JNb95hjV7oVFbv9e-357" value="Correto" style="edgeLabel;html=1;align=center;verticalAlign=middle;resizable=0;points=[];" vertex="1" connectable="0" parent="IEi7JNb95hjV7oVFbv9e-356">
          <mxGeometry x="-0.2232" relative="1" as="geometry">
            <mxPoint as="offset" />
          </mxGeometry>
        </mxCell>
        <mxCell id="IEi7JNb95hjV7oVFbv9e-358" value="" style="rhombus;whiteSpace=wrap;html=1;" vertex="1" parent="IEi7JNb95hjV7oVFbv9e-288">
          <mxGeometry x="571.5" y="775" width="72" height="30" as="geometry" />
        </mxCell>
        <mxCell id="IEi7JNb95hjV7oVFbv9e-359" style="edgeStyle=orthogonalEdgeStyle;rounded=0;orthogonalLoop=1;jettySize=auto;html=1;" edge="1" parent="IEi7JNb95hjV7oVFbv9e-288" source="IEi7JNb95hjV7oVFbv9e-360" target="IEi7JNb95hjV7oVFbv9e-353">
          <mxGeometry relative="1" as="geometry">
            <Array as="points">
              <mxPoint x="370" y="882" />
              <mxPoint x="370" y="925" />
            </Array>
          </mxGeometry>
        </mxCell>
        <mxCell id="IEi7JNb95hjV7oVFbv9e-360" value="Salva dados" style="rounded=0;whiteSpace=wrap;html=1;" vertex="1" parent="IEi7JNb95hjV7oVFbv9e-288">
          <mxGeometry x="540" y="852.5" width="135" height="60" as="geometry" />
        </mxCell>
      </root>
    </mxGraphModel>
  </diagram>
</mxfile>
